<svg xmlns:xlink="http://www.w3.org/1999/xlink" xmlns="http://www.w3.org/2000/svg" id="exportSvg" width="600" height="400"><defs/><g><g id="header-svg"><text transform="translate(0, -2)" fill="rgb(51,51,51)" style="font-family: BentonSans; font-weight: 700; font-size: 19px;"><tspan x="0" dy="19">Minnesotans Google Sanders more than others</tspan></text><g id="text-svg"><text transform="translate(0, 31)" fill="rgb(51,51,51)" style="font-family: BentonSans; font-weight: 400; font-size: 15px;"><tspan x="0" dy="15">Google Trends scores search popularity on a 0 to 100 scale, which shows Sanders well </tspan></text><text transform="translate(0, 51)" fill="rgb(51,51,51)" style="font-family: BentonSans; font-weight: 400; font-size: 15px;"><tspan x="0" dy="15">ahead of other candidates in Minnesota queries ahead of Super Tuesday.</tspan></text></g></g><g id="chart-svg"><g id="group-svg"><g id="y-grid-svg"><g id="tick-svg tick-major-svg"><text transform="translate(11.0625, 365.5)" fill="rgb(133, 133, 133)" style="font-family: BentonSans; font-weight: 400; font-size: 12px;"><tspan x="4.9375" dy="12">0</tspan></text></g><g id="tick-svg tick-major-svg"><line x1="0" x2="507" y1="0" y2="0" transform="translate(0, 80) translate(26,10) translate(0,254.7)" style="stroke: rgb(238, 238, 238); stroke-width: 1;"/><text transform="translate(5.9375, 337.20001220703125)" fill="rgb(133, 133, 133)" style="font-family: BentonSans; font-weight: 400; font-size: 12px;"><tspan x="4.0625" dy="12">10</tspan></text></g><g id="tick-svg tick-major-svg"><line x1="0" x2="507" y1="0" y2="0" transform="translate(0, 80) translate(26,10) translate(0,226.4)" style="stroke: rgb(238, 238, 238); stroke-width: 1;"/><text transform="translate(4.078125, 308.8999938964844)" fill="rgb(133, 133, 133)" style="font-family: BentonSans; font-weight: 400; font-size: 12px;"><tspan x="5.921875" dy="12">20</tspan></text></g><g id="tick-svg tick-major-svg"><line x1="0" x2="507" y1="0" y2="0" transform="translate(0, 80) translate(26,10) translate(0,198.10000000000002)" style="stroke: rgb(238, 238, 238); stroke-width: 1;"/><text transform="translate(3.890625, 280.6000061035156)" fill="rgb(133, 133, 133)" style="font-family: BentonSans; font-weight: 400; font-size: 12px;"><tspan x="6.109375" dy="12">30</tspan></text></g><g id="tick-svg tick-major-svg"><line x1="0" x2="507" y1="0" y2="0" transform="translate(0, 80) translate(26,10) translate(0,169.8)" style="stroke: rgb(238, 238, 238); stroke-width: 1;"/><text transform="translate(3.625, 252.3000030517578)" fill="rgb(133, 133, 133)" style="font-family: BentonSans; font-weight: 400; font-size: 12px;"><tspan x="6.375" dy="12">40</tspan></text></g><g id="tick-svg tick-major-svg"><line x1="0" x2="507" y1="0" y2="0" transform="translate(0, 80) translate(26,10) translate(0,141.5)" style="stroke: rgb(238, 238, 238); stroke-width: 1;"/><text transform="translate(4.015625, 224)" fill="rgb(133, 133, 133)" style="font-family: BentonSans; font-weight: 400; font-size: 12px;"><tspan x="5.984375" dy="12">50</tspan></text></g><g id="tick-svg tick-major-svg"><line x1="0" x2="507" y1="0" y2="0" transform="translate(0, 80) translate(26,10) translate(0,113.20000000000002)" style="stroke: rgb(238, 238, 238); stroke-width: 1;"/><text transform="translate(3.625, 195.6999969482422)" fill="rgb(133, 133, 133)" style="font-family: BentonSans; font-weight: 400; font-size: 12px;"><tspan x="6.375" dy="12">60</tspan></text></g><g id="tick-svg tick-major-svg"><line x1="0" x2="507" y1="0" y2="0" transform="translate(0, 80) translate(26,10) translate(0,84.9)" style="stroke: rgb(238, 238, 238); stroke-width: 1;"/><text transform="translate(4.78125, 167.39999389648438)" fill="rgb(133, 133, 133)" style="font-family: BentonSans; font-weight: 400; font-size: 12px;"><tspan x="5.21875" dy="12">70</tspan></text></g><g id="tick-svg tick-major-svg"><line x1="0" x2="507" y1="0" y2="0" transform="translate(0, 80) translate(26,10) translate(0,56.599999999999994)" style="stroke: rgb(238, 238, 238); stroke-width: 1;"/><text transform="translate(3.703125, 139.10000610351562)" fill="rgb(133, 133, 133)" style="font-family: BentonSans; font-weight: 400; font-size: 12px;"><tspan x="6.296875" dy="12">80</tspan></text></g><g id="tick-svg tick-major-svg"><line x1="0" x2="507" y1="0" y2="0" transform="translate(0, 80) translate(26,10) translate(0,28.299999999999983)" style="stroke: rgb(238, 238, 238); stroke-width: 1;"/><text transform="translate(3.625, 110.80000305175781)" fill="rgb(133, 133, 133)" style="font-family: BentonSans; font-weight: 400; font-size: 12px;"><tspan x="6.375" dy="12">90</tspan></text></g><g id="tick-svg tick-major-svg"><line x1="0" x2="507" y1="0" y2="0" transform="translate(0, 80) translate(26,10) translate(0,0)" style="stroke: rgb(238, 238, 238); stroke-width: 1;"/><text transform="translate(-2, 82.5)" fill="rgb(133, 133, 133)" style="font-family: BentonSans; font-weight: 400; font-size: 12px;"><tspan x="6" dy="12">100</tspan></text></g></g><g id="x-svg ticks-svg"><g id="tick-svg"><text transform="translate(61.0418701171875, 377.75)" fill="rgb(92, 92, 92)" style="font-family: BentonSans; font-weight: 400; font-size: 12px;"><tspan x="3.390625" dy="12">Jan</tspan></text></g><g id="tick-svg"><text transform="translate(318.75714111328125, 377.75)" fill="rgb(92, 92, 92)" style="font-family: BentonSans; font-weight: 400; font-size: 12px;"><tspan x="2.359375" dy="12">Feb</tspan></text></g></g><g id="x-svg axis-svg"><line x1="0" x2="507" y1="0" y2="0" transform="translate(0, 80) translate(26,10) translate(0,283)" style="stroke: rgb(51, 51, 51); stroke-width: 1;"/></g><g id="lines-svg"><path d="M9.620493398855267,268.85L18.823493649964806,266.02L28.02649390107435,260.36L37.22949415218389,268.85L46.43249440329343,271.68L55.63549465440297,274.51L64.83849490551252,268.85L74.04149515662206,271.68L83.2444954077316,274.51L92.44749565884113,274.51L101.65049590995068,277.34L110.85349616106022,277.34L120.05649641216976,274.51L129.2594966632793,271.68L138.46249691438885,251.87L147.66549716549838,274.51L156.86849741660794,266.02L166.07149766771747,268.85L175.27449791882702,268.85L184.47749816993655,266.02L193.68049842104608,254.7L202.8834986721556,266.02L212.08649892326517,254.7L221.2894991743747,263.19L230.49249942548425,263.19L239.69549967659378,260.36L248.89849992770334,263.19L258.10150017881284,263.19L267.3045004299224,266.02L276.50750068103196,260.36L285.71050093214154,263.19L294.913501183251,263.19L304.1165014343606,257.53L313.31950168547013,260.36L322.52250193657966,246.21L331.7255021876892,246.21L340.9285024387987,246.21L350.1315026899083,271.68L359.33450294101783,217.91L368.53750319212736,251.87L377.7405034432369,246.21L386.9435036943465,251.87L396.146503945456,234.89L405.34950419656553,254.7L414.55250444767506,260.36L423.7555046987846,266.02L432.9585049498942,260.36L442.1615052010037,266.02L451.36450545211324,266.02L460.56750570322276,271.68L469.77050595433235,217.91L478.9735062054419,260.36L488.17650645655135,263.19L497.37950670766094,254.7" stroke="rgb(190,214,229)" id="Biden" transform="translate(0, 80) translate(26,10)" style="stroke-width: 1; stroke-dasharray: 0.5, 2; stroke-linejoin: round; stroke-linecap: round; fill: none; mix-blend-mode: normal;"/><path d="M9.620493398855267,274.51L18.823493649964806,268.85L28.02649390107435,280.17L37.22949415218389,280.17L46.43249440329343,274.51L55.63549465440297,280.17L64.83849490551252,274.51L74.04149515662206,268.85L83.2444954077316,274.51L92.44749565884113,274.51L101.65049590995068,266.02L110.85349616106022,260.36L120.05649641216976,249.04L129.2594966632793,257.53L138.46249691438885,209.42000000000002L147.66549716549838,254.7L156.86849741660794,263.19L166.07149766771747,268.85L175.27449791882702,271.68L184.47749816993655,266.02L193.68049842104608,266.02L202.8834986721556,277.34L212.08649892326517,271.68L221.2894991743747,266.02L230.49249942548425,266.02L239.69549967659378,268.85L248.89849992770334,274.51L258.10150017881284,274.51L267.3045004299224,274.51L276.50750068103196,274.51L285.71050093214154,263.19L294.913501183251,263.19L304.1165014343606,271.68L313.31950168547013,274.51L322.52250193657966,266.02L331.7255021876892,266.02L340.9285024387987,271.68L350.1315026899083,274.51L359.33450294101783,257.53L368.53750319212736,260.36L377.7405034432369,274.51L386.9435036943465,271.68L396.146503945456,254.7L405.34950419656553,266.02L414.55250444767506,266.02L423.7555046987846,266.02L432.9585049498942,277.34L442.1615052010037,271.68L451.36450545211324,260.36L460.56750570322276,263.19L469.77050595433235,200.93L478.9735062054419,249.04L488.17650645655135,249.04L497.37950670766094,266.02" stroke="rgb(198,217,158)" id="Warren" transform="translate(0, 80) translate(26,10)" style="stroke-width: 1; stroke-dasharray: 0.5, 2; stroke-linejoin: round; stroke-linecap: round; fill: none; mix-blend-mode: normal;"/><path d="M9.620493398855267,274.51L18.823493649964806,274.51L28.02649390107435,263.19L37.22949415218389,280.17L46.43249440329343,274.51L55.63549465440297,277.34L64.83849490551252,277.34L74.04149515662206,277.34L83.2444954077316,274.51L92.44749565884113,274.51L101.65049590995068,274.51L110.85349616106022,271.68L120.05649641216976,277.34L129.2594966632793,274.51L138.46249691438885,240.55L147.66549716549838,266.02L156.86849741660794,274.51L166.07149766771747,266.02L175.27449791882702,274.51L184.47749816993655,249.04L193.68049842104608,257.53L202.8834986721556,266.02L212.08649892326517,274.51L221.2894991743747,271.68L230.49249942548425,277.34L239.69549967659378,263.19L248.89849992770334,271.68L258.10150017881284,260.36L267.3045004299224,251.87L276.50750068103196,251.87L285.71050093214154,260.36L294.913501183251,260.36L304.1165014343606,254.7L313.31950168547013,251.87L322.52250193657966,240.55L331.7255021876892,260.36L340.9285024387987,266.02L350.1315026899083,257.53L359.33450294101783,183.95L368.53750319212736,240.55L377.7405034432369,251.87L386.9435036943465,232.06L396.146503945456,138.67L405.34950419656553,229.23L414.55250444767506,251.87L423.7555046987846,243.38L432.9585049498942,243.38L442.1615052010037,246.21L451.36450545211324,251.87L460.56750570322276,246.21L469.77050595433235,152.82L478.9735062054419,249.04L488.17650645655135,246.21L497.37950670766094,249.04" stroke="rgb(101,147,95)" id="Klobuchar" transform="translate(0, 80) translate(26,10)" style="stroke-width: 2; stroke-linejoin: round; stroke-linecap: round; fill: none; mix-blend-mode: normal;"/><path d="M9.620493398855267,268.85L18.823493649964806,266.02L28.02649390107435,263.19L37.22949415218389,254.7L46.43249440329343,254.7L55.63549465440297,277.34L64.83849490551252,263.19L74.04149515662206,274.51L83.2444954077316,254.7L92.44749565884113,254.7L101.65049590995068,266.02L110.85349616106022,251.87L120.05649641216976,251.87L129.2594966632793,243.38L138.46249691438885,195.26999999999998L147.66549716549838,229.23L156.86849741660794,237.72L166.07149766771747,254.7L175.27449791882702,246.21L184.47749816993655,254.7L193.68049842104608,234.89L202.8834986721556,234.89L212.08649892326517,237.72L221.2894991743747,251.87L230.49249942548425,257.53L239.69549967659378,234.89L248.89849992770334,249.04L258.10150017881284,251.87L267.3045004299224,243.38L276.50750068103196,240.55L285.71050093214154,246.21L294.913501183251,234.89L304.1165014343606,234.89L313.31950168547013,220.74L322.52250193657966,144.33L331.7255021876892,212.25L340.9285024387987,209.42000000000002L350.1315026899083,209.42000000000002L359.33450294101783,200.93L368.53750319212736,217.91L377.7405034432369,212.25L386.9435036943465,226.4L396.146503945456,158.48000000000002L405.34950419656553,183.95L414.55250444767506,226.4L423.7555046987846,212.25L432.9585049498942,229.23L442.1615052010037,206.58999999999997L451.36450545211324,212.25L460.56750570322276,217.91L469.77050595433235,118.86000000000001L478.9735062054419,164.14L488.17650645655135,147.16L497.37950670766094,0" stroke="rgb(82,140,174)" id="Sanders" transform="translate(0, 80) translate(26,10)" style="stroke-width: 2; stroke-linejoin: round; stroke-linecap: round; fill: none; mix-blend-mode: normal;"/><path d="M9.620493398855267,274.51L18.823493649964806,277.34L28.02649390107435,277.34L37.22949415218389,277.34L46.43249440329343,283L55.63549465440297,277.34L64.83849490551252,277.34L74.04149515662206,277.34L83.2444954077316,280.17L92.44749565884113,277.34L101.65049590995068,266.02L110.85349616106022,280.17L120.05649641216976,277.34L129.2594966632793,277.34L138.46249691438885,240.55L147.66549716549838,271.68L156.86849741660794,274.51L166.07149766771747,271.68L175.27449791882702,277.34L184.47749816993655,280.17L193.68049842104608,271.68L202.8834986721556,280.17L212.08649892326517,271.68L221.2894991743747,283L230.49249942548425,271.68L239.69549967659378,268.85L248.89849992770334,271.68L258.10150017881284,271.68L267.3045004299224,280.17L276.50750068103196,280.17L285.71050093214154,271.68L294.913501183251,268.85L304.1165014343606,268.85L313.31950168547013,274.51L322.52250193657966,155.64999999999998L331.7255021876892,135.84L340.9285024387987,220.74L350.1315026899083,189.61L359.33450294101783,200.93L368.53750319212736,217.91L377.7405034432369,234.89L386.9435036943465,237.72L396.146503945456,195.26999999999998L405.34950419656553,220.74L414.55250444767506,260.36L423.7555046987846,249.04L432.9585049498942,243.38L442.1615052010037,246.21L451.36450545211324,260.36L460.56750570322276,257.53L469.77050595433235,181.12L478.9735062054419,240.55L488.17650645655135,257.53L497.37950670766094,243.38" stroke="rgb(117,88,147)" id="Buttigieg" transform="translate(0, 80) translate(26,10)" style="stroke-width: 1; stroke-dasharray: 0.5, 2; stroke-linejoin: round; stroke-linecap: round; fill: none; mix-blend-mode: normal;"/></g><g id="line-symbols-svg"><path d="M 0,0" stroke="null" id="Biden" transform="translate(0, 80) translate(26,10) translate(9.620493398855267,268.85) scale(3.5)" style="fill: rgb(190, 214, 229); mix-blend-mode: normal;"/><path d="M 0,0" stroke="null" id="Biden" transform="translate(0, 80) translate(26,10) translate(497.37950670766094,254.7) scale(3.5)" style="fill: rgb(190, 214, 229); mix-blend-mode: normal;"/><path d="M 0,0" stroke="null" id="Warren" transform="translate(0, 80) translate(26,10) translate(9.620493398855267,274.51) scale(3.5)" style="fill: rgb(198, 217, 158); mix-blend-mode: normal;"/><path d="M 0,0" stroke="null" id="Warren" transform="translate(0, 80) translate(26,10) translate(497.37950670766094,266.02) scale(3.5)" style="fill: rgb(198, 217, 158); mix-blend-mode: normal;"/><path d="M -1,0 a 1,1 0 1,0 2,0 a 1,1 0 1,0 -2,0 Z" stroke="null" id="Klobuchar" transform="translate(0, 80) translate(26,10) translate(9.620493398855267,274.51) scale(3.5)" style="fill: rgb(101, 147, 95); mix-blend-mode: normal;"/><path d="M -1,0 a 1,1 0 1,0 2,0 a 1,1 0 1,0 -2,0 Z" stroke="null" id="Klobuchar" transform="translate(0, 80) translate(26,10) translate(497.37950670766094,249.04) scale(3.5)" style="fill: rgb(101, 147, 95); mix-blend-mode: normal;"/><path d="M -1,0 a 1,1 0 1,0 2,0 a 1,1 0 1,0 -2,0 Z" stroke="null" id="Sanders" transform="translate(0, 80) translate(26,10) translate(9.620493398855267,268.85) scale(3.5)" style="fill: rgb(82, 140, 174); mix-blend-mode: normal;"/><path d="M -1,0 a 1,1 0 1,0 2,0 a 1,1 0 1,0 -2,0 Z" stroke="null" id="Sanders" transform="translate(0, 80) translate(26,10) translate(497.37950670766094,0) scale(3.5)" style="fill: rgb(82, 140, 174); mix-blend-mode: normal;"/><path d="M 0,0" stroke="null" id="Buttigieg" transform="translate(0, 80) translate(26,10) translate(9.620493398855267,274.51) scale(3.5)" style="fill: rgb(117, 88, 147); mix-blend-mode: normal;"/><path d="M 0,0" stroke="null" id="Buttigieg" transform="translate(0, 80) translate(26,10) translate(497.37950670766094,243.38) scale(3.5)" style="fill: rgb(117, 88, 147); mix-blend-mode: normal;"/></g><g id="lbl-connect-lines-svg"><path d="M497.37950670766094,254.7L504,257.86379812658015" stroke="rgb(190,214,229)" id="Biden" transform="translate(0, 80) translate(26,10)" style="stroke-width: 1; stroke-dasharray: 2, 2; stroke-linejoin: miter; stroke-linecap: butt; fill: none; mix-blend-mode: normal;"/><path d="M497.37950670766094,266.02L504,283" stroke="rgb(198,217,158)" id="Warren" transform="translate(0, 80) translate(26,10)" style="stroke-width: 1; stroke-dasharray: 2, 2; stroke-linejoin: miter; stroke-linecap: butt; fill: none; mix-blend-mode: normal;"/><path d="M497.37950670766094,249.04L504,230.97476330754043" stroke="rgb(101,147,95)" id="Klobuchar" transform="translate(0, 80) translate(26,10)" style="stroke-width: 1; stroke-dasharray: 2, 2; stroke-linejoin: miter; stroke-linecap: butt; fill: none; mix-blend-mode: normal;"/><path d="M497.37950670766094,243.38L504,200.92295490780856" stroke="rgb(117,88,147)" id="Buttigieg" transform="translate(0, 80) translate(26,10)" style="stroke-width: 1; stroke-dasharray: 2, 2; stroke-linejoin: miter; stroke-linecap: butt; fill: none; mix-blend-mode: normal;"/></g></g><text transform="translate(533, 342.859375)" fill="rgb(190,214,229)" id="Biden" style="font-family: BentonSans; font-weight: 400; font-size: 12px;"><tspan x="0" dy="12">Biden</tspan></text><text transform="translate(533, 368)" fill="rgb(198,217,158)" id="Warren" style="font-family: BentonSans; font-weight: 400; font-size: 12px;"><tspan x="0" dy="12">Warren</tspan></text><text transform="translate(533, 315.96875)" fill="rgb(101,147,95)" id="Klobuchar" style="font-family: BentonSans; font-weight: 400; font-size: 12px;"><tspan x="0" dy="12">Klobuchar</tspan></text><text transform="translate(533, 85)" fill="rgb(82,140,174)" id="Sanders" style="font-family: BentonSans; font-weight: 400; font-size: 12px;"><tspan x="0" dy="12">Sanders</tspan></text><text transform="translate(533, 285.921875)" fill="rgb(117,88,147)" id="Buttigieg" style="font-family: BentonSans; font-weight: 400; font-size: 12px;"><tspan x="0" dy="12">Buttigieg</tspan></text></g><g id="footer-svg"><g id="footer-inner-svg"><g id="footer-main-svg"/></g></g></g></svg>