<svg xmlns:xlink="http://www.w3.org/1999/xlink" xmlns="http://www.w3.org/2000/svg" id="exportSvg" width="738" height="482"><defs/><g><g id="header-svg"><text transform="translate(0, -2)" fill="rgb(51,51,51)" style="font-family: BentonSans; font-weight: 700; font-size: 19px;"><tspan x="0" dy="19">Sanders overtook Klobuchar in ActBlue donations</tspan></text><text transform="translate(0, -2)" fill="rgb(51,51,51)" style="font-family: BentonSans; font-weight: 700; font-size: 19px;"><tspan x="0" dy="19">Sanders overtook Klobuchar in ActBlue donations</tspan></text><text transform="translate(0, 31)" fill="rgb(51,51,51)" style="font-family: BentonSans; font-weight: 400; font-size: 15px;"><tspan x="0" dy="15">By the start of February, Minnesota's ActBlue donors were giving mostly to Sanders and Klobuchar.</tspan></text></g><g id="chart-svg"><g id="group-svg"><g id="y-grid-svg"><g id="tick-svg tick-major-svg"><text transform="translate(20.21875, 447.5)" fill="rgb(133, 133, 133)" style="font-family: BentonSans; font-weight: 400; font-size: 12px;"><tspan x="6.78125" dy="12">$0</tspan></text></g><g id="tick-svg tick-major-svg"><line x1="0" x2="628" y1="0" y2="0" transform="translate(0, 60) translate(43,10) translate(0,329.80435430277083)" style="stroke: rgb(238, 238, 238); stroke-width: 1;"/><text transform="translate(0.671875, 392.3043518066406)" fill="rgb(133, 133, 133)" style="font-family: BentonSans; font-weight: 400; font-size: 12px;"><tspan x="8.328125" dy="12">$100k</tspan></text></g><g id="tick-svg tick-major-svg"><line x1="0" x2="628" y1="0" y2="0" transform="translate(0, 60) translate(43,10) translate(0,274.60870860554166)" style="stroke: rgb(238, 238, 238); stroke-width: 1;"/><text transform="translate(-1.1875, 337.10870361328125)" fill="rgb(133, 133, 133)" style="font-family: BentonSans; font-weight: 400; font-size: 12px;"><tspan x="10.1875" dy="12">$200k</tspan></text></g><g id="tick-svg tick-major-svg"><line x1="0" x2="628" y1="0" y2="0" transform="translate(0, 60) translate(43,10) translate(0,219.4130629083125)" style="stroke: rgb(238, 238, 238); stroke-width: 1;"/><text transform="translate(-1.359375, 281.9130554199219)" fill="rgb(133, 133, 133)" style="font-family: BentonSans; font-weight: 400; font-size: 12px;"><tspan x="10.359375" dy="12">$300k</tspan></text></g><g id="tick-svg tick-major-svg"><line x1="0" x2="628" y1="0" y2="0" transform="translate(0, 60) translate(43,10) translate(0,164.21741721108333)" style="stroke: rgb(238, 238, 238); stroke-width: 1;"/><text transform="translate(-1.625, 226.71742248535156)" fill="rgb(133, 133, 133)" style="font-family: BentonSans; font-weight: 400; font-size: 12px;"><tspan x="10.625" dy="12">$400k</tspan></text></g><g id="tick-svg tick-major-svg"><line x1="0" x2="628" y1="0" y2="0" transform="translate(0, 60) translate(43,10) translate(0,109.02177151385416)" style="stroke: rgb(238, 238, 238); stroke-width: 1;"/><text transform="translate(-1.25, 171.5217742919922)" fill="rgb(133, 133, 133)" style="font-family: BentonSans; font-weight: 400; font-size: 12px;"><tspan x="10.25" dy="12">$500k</tspan></text></g><g id="tick-svg tick-major-svg"><line x1="0" x2="628" y1="0" y2="0" transform="translate(0, 60) translate(43,10) translate(0,53.826125816624995)" style="stroke: rgb(238, 238, 238); stroke-width: 1;"/><text transform="translate(-1.625, 116.32612609863281)" fill="rgb(133, 133, 133)" style="font-family: BentonSans; font-weight: 400; font-size: 12px;"><tspan x="10.625" dy="12">$600k</tspan></text></g></g><g id="x-svg ticks-svg"><g id="tick-svg"><text transform="translate(41.30073547363281, 459.75)" fill="rgb(92, 92, 92)" style="font-family: BentonSans; font-weight: 400; font-size: 12px;"><tspan x="3.390625" dy="12">Jan</tspan></text></g><g id="tick-svg"><text transform="translate(93.02276611328125, 459.75)" fill="rgb(92, 92, 92)" style="font-family: BentonSans; font-weight: 400; font-size: 12px;"><tspan x="2.359375" dy="12">Feb</tspan></text></g><g id="tick-svg"><text transform="translate(138.57058715820312, 459.75)" fill="rgb(92, 92, 92)" style="font-family: BentonSans; font-weight: 400; font-size: 12px;"><tspan x="2.4765625" dy="12">Mar</tspan></text></g><g id="tick-svg"><text transform="translate(191.11376953125, 459.75)" fill="rgb(92, 92, 92)" style="font-family: BentonSans; font-weight: 400; font-size: 12px;"><tspan x="2.2265625" dy="12">Apr</tspan></text></g><g id="tick-svg"><text transform="translate(239.48086547851562, 459.75)" fill="rgb(92, 92, 92)" style="font-family: BentonSans; font-weight: 400; font-size: 12px;"><tspan x="2.234375" dy="12">May</tspan></text></g><g id="tick-svg"><text transform="translate(292.812255859375, 459.75)" fill="rgb(92, 92, 92)" style="font-family: BentonSans; font-weight: 400; font-size: 12px;"><tspan x="3.2578125" dy="12">Jun</tspan></text></g><g id="tick-svg"><text transform="translate(344.8668518066406, 459.75)" fill="rgb(92, 92, 92)" style="font-family: BentonSans; font-weight: 400; font-size: 12px;"><tspan x="2.5546875" dy="12">Jul</tspan></text></g><g id="tick-svg"><text transform="translate(393.6201477050781, 459.75)" fill="rgb(92, 92, 92)" style="font-family: BentonSans; font-weight: 400; font-size: 12px;"><tspan x="2.1640625" dy="12">Aug</tspan></text></g><g id="tick-svg"><text transform="translate(445.5140380859375, 459.75)" fill="rgb(92, 92, 92)" style="font-family: BentonSans; font-weight: 400; font-size: 12px;"><tspan x="3.296875" dy="12">Sep</tspan></text></g><g id="tick-svg"><text transform="translate(496.4123840332031, 459.75)" fill="rgb(92, 92, 92)" style="font-family: BentonSans; font-weight: 400; font-size: 12px;"><tspan x="2.7499847412109375" dy="12">Oct</tspan></text></g><g id="tick-svg"><text transform="translate(547.0875244140625, 459.75)" fill="rgb(92, 92, 92)" style="font-family: BentonSans; font-weight: 400; font-size: 12px;"><tspan x="2.1015625" dy="12">Nov</tspan></text></g><g id="tick-svg"><text transform="translate(597.3522338867188, 459.75)" fill="rgb(92, 92, 92)" style="font-family: BentonSans; font-weight: 400; font-size: 12px;"><tspan x="2.6015625" dy="12">Dec</tspan></text></g><g id="tick-svg"><text transform="translate(649.9180297851562, 459.75)" fill="rgb(92, 92, 92)" style="font-family: BentonSans; font-weight: 400; font-size: 12px;"><tspan x="3.390625" dy="12">Jan</tspan></text></g></g><g id="x-svg axis-svg"><line x1="0" x2="628" y1="0" y2="0" transform="translate(0, 60) translate(43,10) translate(0,385)" style="stroke: rgb(51, 51, 51); stroke-width: 1;"/></g><g id="lines-svg"><path d="M159.69189639997853,337.56865402866066L209.71523480563505,368.53665124920866L261.40601782481343,368.36694119738337L311.42935623047,370.48542735314703L363.12013924964845,369.2909880606944L414.8109222688268,364.927021607547L464.83426067448335,348.3494013114686L516.5250436936617,356.01808010075257L566.617858958215,355.3997232820065L618.3086419773934,351.0705632030357" stroke="rgb(190,214,229)" id="Biden" transform="translate(0, 60) translate(43,10)" style="stroke-width: 2; stroke-dasharray: 3, 6; stroke-linejoin: round; stroke-linecap: round; fill: none; mix-blend-mode: normal;"/><path d="M9.691358041905703,377.4853777774216L61.38214106108411,374.91078792300345L108.07059023969687,366.3176814204532L159.69189639997853,349.09544773697064L209.71523480563505,356.9059793356965L261.40601782481343,319.07082137529227L311.42935623047,341.8245639662266L363.12013924964845,321.493187158442L414.8109222688268,309.6059051685188L464.83426067448335,334.9345467094872L516.5250436936617,352.5863184273502L566.617858958215,312.6578545647494L618.3086419773934,301.7409617022647" stroke="rgb(198,217,158)" id="Warren" transform="translate(0, 60) translate(43,10)" style="stroke-width: 2; stroke-dasharray: 3, 6; stroke-linejoin: round; stroke-linecap: round; fill: none; mix-blend-mode: normal;"/><path d="M9.691358041905703,366.32895789086916L61.38214106108411,361.0810497305743L108.07059023969687,313.7255149786001L159.69189639997853,338.8791200879334L209.71523480563505,325.88796934058223L261.40601782481343,307.2741761551685L311.42935623047,314.02991896462026L363.12013924964845,285.9227286192534L414.8109222688268,298.8738404452158L464.83426067448335,314.610091435673L516.5250436936617,311.2734263402424L566.617858958215,272.3996905517054L618.3086419773934,307.47860426813736" stroke="rgb(159,159,159)" id="Others" transform="translate(0, 60) translate(43,10)" style="stroke-width: 1; stroke-dasharray: 0.5, 2; stroke-linejoin: round; stroke-linecap: round; fill: none; mix-blend-mode: normal;"/><path d="M61.38214106108411,0L108.07059023969687,69.82622303264401L159.69189639997853,280.2484948111577L209.71523480563505,280.6861300467619L261.40601782481343,153.1977610954395L311.42935623047,226.91095533068005L363.12013924964845,284.19444256118175L414.8109222688268,274.9247809510623L464.83426067448335,170.2201423849815L516.5250436936617,257.2355645071583L566.617858958215,218.09116583081584L618.3086419773934,162.74869419646748" stroke="rgb(101,147,95)" id="Klobuchar" transform="translate(0, 60) translate(43,10)" style="stroke-width: 3; stroke-linejoin: round; stroke-linecap: round; fill: none; mix-blend-mode: normal;"/><path d="M61.38214106108411,294.00080455180284L108.07059023969687,314.6006143433068L159.69189639997853,338.41309773174714L209.71523480563505,350.70584693496215L261.40601782481343,304.5871582900297L311.42935623047,327.5728936993941L363.12013924964845,295.8293590198481L414.8109222688268,291.5192800755948L464.83426067448335,300.435921374964L516.5250436936617,309.3621943145073L566.617858958215,204.735017317598L618.3086419773934,134.58421077086686" stroke="rgb(82,140,174)" id="Sanders" transform="translate(0, 60) translate(43,10)" style="stroke-width: 3; stroke-linejoin: round; stroke-linecap: round; fill: none; mix-blend-mode: normal;"/><path d="M61.38214106108411,382.9947421918197L108.07059023969687,325.2434497857757L159.69189639997853,245.02506233559674L209.71523480563505,355.28897321891503L261.40601782481343,342.31137852214704L311.42935623047,358.2300511216336L363.12013924964845,350.29701278728277L414.8109222688268,326.4893534982764L464.83426067448335,326.68841107491886L516.5250436936617,330.89117864480755L566.617858958215,345.09482318031894L618.3086419773934,349.49827659839815" stroke="rgb(117,88,147)" id="Buttigieg" transform="translate(0, 60) translate(43,10)" style="stroke-width: 2; stroke-dasharray: 3, 6; stroke-linejoin: round; stroke-linecap: round; fill: none; mix-blend-mode: normal;"/></g><g id="line-symbols-svg"><path d="M 0,0" stroke="null" id="Biden" transform="translate(0, 60) translate(43,10) translate(159.69189639997853,337.56865402866066) scale(3)" style="fill: rgb(190, 214, 229); mix-blend-mode: normal;"/><path d="M 0,0" stroke="null" id="Biden" transform="translate(0, 60) translate(43,10) translate(618.3086419773934,351.0705632030357) scale(3)" style="fill: rgb(190, 214, 229); mix-blend-mode: normal;"/><path d="M 0,0" stroke="null" id="Warren" transform="translate(0, 60) translate(43,10) translate(9.691358041905703,377.4853777774216) scale(3)" style="fill: rgb(198, 217, 158); mix-blend-mode: normal;"/><path d="M 0,0" stroke="null" id="Warren" transform="translate(0, 60) translate(43,10) translate(618.3086419773934,301.7409617022647) scale(3)" style="fill: rgb(198, 217, 158); mix-blend-mode: normal;"/><path d="M 0,0" stroke="null" id="Others" transform="translate(0, 60) translate(43,10) translate(9.691358041905703,366.32895789086916) scale(3)" style="fill: rgb(159, 159, 159); mix-blend-mode: normal;"/><path d="M 0,0" stroke="null" id="Others" transform="translate(0, 60) translate(43,10) translate(618.3086419773934,307.47860426813736) scale(3)" style="fill: rgb(159, 159, 159); mix-blend-mode: normal;"/><path d="M -1,0 a 1,1 0 1,0 2,0 a 1,1 0 1,0 -2,0 Z" stroke="null" id="Klobuchar" transform="translate(0, 60) translate(43,10) translate(61.38214106108411,0) scale(3)" style="fill: rgb(101, 147, 95); mix-blend-mode: normal;"/><path d="M -1,0 a 1,1 0 1,0 2,0 a 1,1 0 1,0 -2,0 Z" stroke="null" id="Klobuchar" transform="translate(0, 60) translate(43,10) translate(618.3086419773934,162.74869419646748) scale(3)" style="fill: rgb(101, 147, 95); mix-blend-mode: normal;"/><path d="M -1,0 a 1,1 0 1,0 2,0 a 1,1 0 1,0 -2,0 Z" stroke="null" id="Sanders" transform="translate(0, 60) translate(43,10) translate(61.38214106108411,294.00080455180284) scale(3)" style="fill: rgb(82, 140, 174); mix-blend-mode: normal;"/><path d="M -1,0 a 1,1 0 1,0 2,0 a 1,1 0 1,0 -2,0 Z" stroke="null" id="Sanders" transform="translate(0, 60) translate(43,10) translate(618.3086419773934,134.58421077086686) scale(3)" style="fill: rgb(82, 140, 174); mix-blend-mode: normal;"/><path d="M 0,0" stroke="null" id="Buttigieg" transform="translate(0, 60) translate(43,10) translate(61.38214106108411,382.9947421918197) scale(3)" style="fill: rgb(117, 88, 147); mix-blend-mode: normal;"/><path d="M 0,0" stroke="null" id="Buttigieg" transform="translate(0, 60) translate(43,10) translate(618.3086419773934,349.49827659839815) scale(3)" style="fill: rgb(117, 88, 147); mix-blend-mode: normal;"/></g><g id="lbl-connect-lines-svg"><path d="M618.3086419773934,351.0705632030357L625,376.44966187323985" stroke="rgb(190,214,229)" id="Biden" transform="translate(0, 60) translate(43,10)" style="stroke-width: 1; stroke-dasharray: 2, 2; stroke-linejoin: miter; stroke-linecap: butt; fill: none; mix-blend-mode: normal;"/><path d="M618.3086419773934,301.7409617022647L625,278.44452871467286" stroke="rgb(198,217,158)" id="Warren" transform="translate(0, 60) translate(43,10)" style="stroke-width: 1; stroke-dasharray: 2, 2; stroke-linejoin: miter; stroke-linecap: butt; fill: none; mix-blend-mode: normal;"/><path d="M618.3086419773934,307.47860426813736L625,311.2744715633096" stroke="rgb(159,159,159)" id="Others" transform="translate(0, 60) translate(43,10)" style="stroke-width: 1; stroke-dasharray: 2, 2; stroke-linejoin: miter; stroke-linecap: butt; fill: none; mix-blend-mode: normal;"/><path d="M618.3086419773934,162.74869419646748L625,165.66643525459625" stroke="rgb(101,147,95)" id="Klobuchar" transform="translate(0, 60) translate(43,10)" style="stroke-width: 1; stroke-dasharray: 2, 2; stroke-linejoin: miter; stroke-linecap: butt; fill: none; mix-blend-mode: normal;"/><path d="M618.3086419773934,134.58421077086686L625,131.6664697127381" stroke="rgb(82,140,174)" id="Sanders" transform="translate(0, 60) translate(43,10)" style="stroke-width: 1; stroke-dasharray: 2, 2; stroke-linejoin: miter; stroke-linecap: butt; fill: none; mix-blend-mode: normal;"/><path d="M618.3086419773934,349.49827659839815L625,343.6197436206135" stroke="rgb(117,88,147)" id="Buttigieg" transform="translate(0, 60) translate(43,10)" style="stroke-width: 1; stroke-dasharray: 2, 2; stroke-linejoin: miter; stroke-linecap: butt; fill: none; mix-blend-mode: normal;"/></g></g><text transform="translate(671, 441.4375)" fill="rgb(190,214,229)" id="Biden" style="font-family: BentonSans; font-weight: 400; font-size: 12px;"><tspan x="0" dy="12">Biden</tspan></text><text transform="translate(671, 343.4375)" fill="rgb(198,217,158)" id="Warren" style="font-family: BentonSans; font-weight: 400; font-size: 12px;"><tspan x="0" dy="12">Warren</tspan></text><text transform="translate(671, 376.265625)" fill="rgb(159,159,159)" id="Others" style="font-family: BentonSans; font-weight: 400; font-size: 12px;"><tspan x="0" dy="12">Others</tspan></text><text transform="translate(671, 230.65625)" fill="rgb(101,147,95)" id="Klobuchar" style="font-family: BentonSans; font-weight: 400; font-size: 12px;"><tspan x="0" dy="12">Klobuchar</tspan></text><text transform="translate(671, 196.65625)" fill="rgb(82,140,174)" id="Sanders" style="font-family: BentonSans; font-weight: 400; font-size: 12px;"><tspan x="0" dy="12">Sanders</tspan></text><text transform="translate(671, 408.609375)" fill="rgb(117,88,147)" id="Buttigieg" style="font-family: BentonSans; font-weight: 400; font-size: 12px;"><tspan x="0" dy="12">Buttigieg</tspan></text></g><g id="footer-svg"><g id="footer-inner-svg"><g id="footer-main-svg"/></g></g></g></svg>